<svg xmlns="http://www.w3.org/2000/svg" viewBox="0 0 64 64" role="img" aria-label="Dragon Gem">
  <defs>
    <linearGradient id="body" x1="16" x2="50" y1="52" y2="8" gradientUnits="userSpaceOnUse">
      <stop offset="0" stop-color="#1d4ed8"/>
      <stop offset="0.48" stop-color="#38bdf8"/>
      <stop offset="1" stop-color="#dbeafe"/>
    </linearGradient>
    <linearGradient id="wing" x1="8" x2="56" y1="18" y2="44" gradientUnits="userSpaceOnUse">
      <stop offset="0" stop-color="#60a5fa"/>
      <stop offset="1" stop-color="#0f5fb8"/>
    </linearGradient>
  </defs>
  <path fill="#06233f" d="M32 4 45 16 60 18 48 30 54 47 37 43 26 60 22 42 6 45 18 31 9 14 25 18z"/>
  <path fill="url(#wing)" d="M27 24 8 15l10 17-9 11 17-5 5 17 8-16 17 5-8-13 10-11-16-2-10-10z"/>
  <path fill="url(#body)" d="M29 22c7-8 16-9 24-5-6 2-8 5-9 9l7 3-9 2 5 8-10-4c-3 5-7 10-14 16 3-8 4-14 2-21l-9-4 11-1-3-11z"/>
  <path fill="#e0f2fe" d="M42 19h5l-4 3z"/>
  <path fill="#bae6fd" d="M31 25c3-3 6-4 10-5-4 4-7 8-8 13l-7 10c2-8 2-13 5-18z" opacity="0.86"/>
  <path fill="none" stroke="#7dd3fc" stroke-linecap="round" stroke-linejoin="round" stroke-width="3" d="M30 23 18 31m22 1 9 12M29 22 24 9"/>
</svg>
